<?xml version="1.0" encoding="utf-8"?>
<!-- Generator: Adobe Illustrator 16.0.3, SVG Export Plug-In . SVG Version: 6.00 Build 0)  -->
<!DOCTYPE svg PUBLIC "-//W3C//DTD SVG 1.1//EN" "http://www.w3.org/Graphics/SVG/1.1/DTD/svg11.dtd">
<svg version="1.1" id="Layer_1" xmlns="http://www.w3.org/2000/svg" xmlns:xlink="http://www.w3.org/1999/xlink" x="0px" y="0px"
	 width="200px" height="200px" viewBox="0 0 200 200" enable-background="new 0 0 200 200" xml:space="preserve">
<g>
	<g>
		<defs>
			<rect id="SVGID_1_" x="48.633" y="64" width="103.018" height="131"/>
		</defs>
		<clipPath id="SVGID_2_">
			<use xlink:href="#SVGID_1_"  overflow="visible"/>
		</clipPath>
		<path clip-path="url(#SVGID_2_)" fill="#FFFFFF" d="M49.603,112.8l32.498,23.488c0,0-4.008-18.666-14.242-38.339
			C67.859,97.949,52.008,105.581,49.603,112.8L49.603,112.8z M49.603,112.8"/>
		<path clip-path="url(#SVGID_2_)" fill="#FFFFFF" d="M51.006,163.164l31.106,29.506v-53.174l-32.51-24.891
			C46.792,129.46,51.006,163.164,51.006,163.164L51.006,163.164z M51.006,163.164"/>
		<path clip-path="url(#SVGID_2_)" fill="#FFFFFF" d="M124.247,88.423V68.26c0-2.67-2.133-4.551-4.781-4.225l-45.52,5.728
			c-2.645,0.325-4.78,2.754-4.78,5.421v21.065c0,0,13.849,25.894,17.158,48.771c3.311,22.873-3.016,48.457-3.016,48.457l60.2-17.768
			c0,0,14.154-20.468,5.116-48.156C139.6,99.864,124.247,88.423,124.247,88.423L124.247,88.423z M108.492,84.121L89.43,87.539
			c-0.308,0.055-0.611,0.078-0.907,0.078c-2.427,0-4.594-1.742-5.029-4.215c-0.5-2.786,1.35-5.442,4.125-5.944l19.076-3.406
			c2.777-0.491,5.433,1.361,5.935,4.136C113.133,80.963,111.278,83.631,108.492,84.121L108.492,84.121z M108.492,84.121"/>
	</g>
</g>
<g>
	<path fill="#FFFFFF" d="M71.352,18.457H65.25v4.355l1.25,0.065v1.833h-5.218v-1.747l0.711-0.064
		c0.367-0.043,0.625-0.172,0.625-0.604V12.269l-1.229-0.065v-1.833h5.218v1.747l-0.712,0.064c-0.41,0.043-0.646,0.172-0.646,0.711
		v3.342h6.102v-3.967l-1.229-0.065v-1.833h5.218v1.747l-0.711,0.064c-0.367,0.043-0.625,0.172-0.625,0.69v9.939l1.229,0.065v1.833
		h-5.218v-1.747l0.711-0.064c0.41-0.043,0.625-0.172,0.625-0.711V18.457z"/>
	<path fill="#FFFFFF" d="M81.788,13.541c1.596,0,4.808,0.496,4.808,5.455c0,4.14-2.307,6.037-5.153,6.037
		c-2.889,0-4.787-1.854-4.787-5.756C76.656,14.792,79.567,13.541,81.788,13.541z M83.965,19.341c0-2.415-0.582-3.902-2.307-3.902
		c-1.703,0-2.393,1.466-2.393,3.536c0,2.005,0.28,4.162,2.35,4.162C83.297,23.136,83.965,21.583,83.965,19.341z"/>
	<path fill="#FFFFFF" d="M97.269,14.296l2.242,8.021h0.043l1.467-6.663l-1.101-0.064v-1.725h4.334v1.66l-0.711,0.043
		c-0.28,0.021-0.453,0.108-0.582,0.517l-2.049,8.625h-3.104l-1.768-6.425h-0.064l-1.833,6.425h-3.169l-2.177-8.603
		c-0.129-0.388-0.237-0.518-0.625-0.539l-0.625-0.043v-1.66h4.937v1.725l-1.207,0.064l1.487,6.619h0.043l2.372-7.977H97.269z"/>
	<path fill="#FFFFFF" d="M119.177,22.316c0,0.474,0.129,0.604,0.539,0.625l0.689,0.043v1.725h-3.428v-1.25l-0.065-0.021
		c-0.668,0.97-1.768,1.552-2.953,1.552c-3.04,0-4.313-2.156-4.313-5.239c0-3.794,1.812-6.209,5.692-6.209
		c0.711,0,2.285,0.172,3.838,0.755V22.316z M116.676,15.697c-0.324-0.151-0.992-0.28-1.66-0.28c-2.049,0-2.738,1.919-2.738,4.247
		c0,1.79,0.431,3.493,2.242,3.493c1.337,0,2.156-0.949,2.156-1.876V15.697z"/>
	<path fill="#FFFFFF" d="M123.057,16.322c0-0.474-0.129-0.625-0.539-0.646l-0.905-0.065v-1.747h3.644v1.617
		c0.496-1.078,1.639-1.94,3.062-1.94c0.712,0,1.358,0.129,2.07,0.475v3.212l-2.005,0.151v-0.992c0-0.259-0.043-0.453-0.216-0.539
		c-0.194-0.086-0.345-0.108-0.582-0.108c-1.164,0-1.962,0.927-1.962,2.178v5.002l1.876,0.086v1.703h-5.778v-1.639l0.711-0.064
		c0.41-0.043,0.625-0.173,0.625-0.711V16.322z"/>
	<path fill="#FFFFFF" d="M140.608,16.538c0,3.32-3.601,3.881-6.145,3.902c0.086,1.401,0.819,2.544,2.651,2.544
		c1.272,0,2.199-0.582,2.717-0.948l0.819,1.746c-0.345,0.302-1.768,1.208-3.795,1.208c-3.665,0-5.088-2.242-5.088-5.455
		c0-3.191,1.789-5.994,5.325-5.994C139.207,13.541,140.608,14.619,140.608,16.538z M136.943,15.374c-1.726,0-2.501,1.66-2.566,3.256
		c1.596-0.021,3.859-0.388,3.859-2.048C138.236,15.783,137.719,15.374,136.943,15.374z"/>
</g>
<g>
	<path fill="#FFFFFF" d="M45.139,49.766l1.164-0.106c0.6-0.071,1.023-0.282,1.023-0.988V32.268l-2.011-0.106v-2.999h10.09
		c5.186,0,8.361,2.469,8.361,7.197c0,5.362-3.81,8.043-9.137,8.043H51.63v5.115l3.387,0.106v2.999h-9.878V49.766z M54.17,40.981
		c3.069,0,5.151-1.059,5.151-4.198c0-3.634-2.082-4.198-5.539-4.198H51.63v8.396H54.17z"/>
	<path fill="#FFFFFF" d="M81.827,48.707c0,0.776,0.212,0.988,0.882,1.023l1.129,0.07v2.822h-5.609v-2.046l-0.106-0.036
		c-1.094,1.587-2.893,2.54-4.833,2.54c-4.974,0-7.056-3.528-7.056-8.573c0-6.209,2.963-10.16,9.313-10.16
		c1.164,0,3.739,0.282,6.279,1.235V48.707z M77.735,37.877c-0.529-0.247-1.623-0.459-2.717-0.459c-3.352,0-4.48,3.14-4.48,6.95
		c0,2.928,0.706,5.715,3.669,5.715c2.188,0,3.528-1.552,3.528-3.069V37.877z"/>
	<path fill="#FFFFFF" d="M98.865,48.354l1.517,2.716c-1.376,1.129-3.528,2.046-6.138,2.046c-5.186,0-8.255-3.281-8.255-9.137
		c0-7.162,4.41-9.631,8.396-9.631c2.117,0,3.81,0.529,5.503,1.447v4.586l-3.246,0.247v-1.693c0-0.67-0.106-0.988-0.741-1.2
		c-0.423-0.141-0.847-0.211-1.375-0.211c-2.822,0-4.269,2.117-4.269,6.033c0,3.845,1.411,6.314,4.551,6.314
		C96.183,49.871,97.418,49.413,98.865,48.354z"/>
	<path fill="#FFFFFF" d="M104.614,31.491c0-0.776-0.212-0.988-0.882-1.023l-1.235-0.071V27.47h6.28v15.275
		c2.504-0.247,4.621-1.587,5.362-3.881c0.282-0.847-0.071-1.164-0.564-1.164l-1.341-0.07v-2.752h7.303v2.857l-1.693,0.071
		c-0.317,2.434-1.271,4.233-3.104,5.68l3.457,6.209l2.152,0.106v2.822h-5.151l-4.021-7.338c-0.74,0.212-1.588,0.388-2.398,0.494
		v3.916h0.035l2.011,0.106v2.822h-8.396v-2.681l1.164-0.106c0.671-0.07,1.023-0.282,1.023-1.164V31.491z"/>
	<path fill="#FFFFFF" d="M136.646,39.252c0,5.433-5.892,6.35-10.055,6.385c0.142,2.293,1.341,4.163,4.34,4.163
		c2.081,0,3.598-0.953,4.444-1.552l1.341,2.857c-0.564,0.494-2.893,1.976-6.209,1.976c-5.997,0-8.325-3.669-8.325-8.925
		c0-5.221,2.928-9.808,8.714-9.808C134.354,34.349,136.646,36.113,136.646,39.252z M130.649,37.348
		c-2.822,0-4.093,2.716-4.198,5.327c2.61-0.036,6.314-0.635,6.314-3.352C132.766,38.018,131.919,37.348,130.649,37.348z"/>
	<path fill="#FFFFFF" d="M150.862,34.772v-3.563c0-0.6-0.317-0.812-0.917-0.847l-1.518-0.105V27.47h6.562v21.449
		c0.036,0.6,0.282,0.812,0.882,0.812l1.235,0.07v2.822h-5.715v-2.082l-0.106-0.035c-1.094,1.764-2.857,2.575-4.798,2.575
		c-5.503,0-7.126-4.233-7.126-8.643c0-6.033,3.104-10.09,8.607-10.09C149.204,34.349,150.051,34.525,150.862,34.772z
		 M150.862,37.982c-0.636-0.282-1.588-0.564-2.682-0.564c-3.352,0-4.48,3.175-4.48,6.632c0,3.21,0.776,5.927,3.811,5.927
		c1.976,0,3.352-1.305,3.352-2.857V37.982z"/>
</g>
</svg>
