<?xml version="1.0" encoding="utf-8"?>
<!-- Generator: Adobe Illustrator 16.0.3, SVG Export Plug-In . SVG Version: 6.00 Build 0)  -->
<!DOCTYPE svg PUBLIC "-//W3C//DTD SVG 1.1//EN" "http://www.w3.org/Graphics/SVG/1.1/DTD/svg11.dtd">
<svg version="1.1" id="Layer_1" xmlns="http://www.w3.org/2000/svg" xmlns:xlink="http://www.w3.org/1999/xlink" x="0px" y="0px"
	 width="200px" height="200px" viewBox="0 0 200 200" enable-background="new 0 0 200 200" xml:space="preserve">
<rect x="14" y="38" fill="#FE6100" width="125" height="38"/>
<g>
	<path fill="#59561C" d="M83.524,150.304c-4.251,0-7.747,3.477-7.747,7.727c0,4.271,3.496,7.748,7.747,7.748
		c4.254,0,7.727-3.477,7.727-7.748C91.25,153.78,87.778,150.304,83.524,150.304L83.524,150.304z M60.301,88.38v7.75h7.75
		l13.922,29.402l-5.423,9.294c-0.378,1.153-0.772,2.704-0.772,3.854c0,4.272,3.496,7.749,7.747,7.749h46.427v-7.749H85.074
		c-0.396,0-0.775-0.377-0.775-0.772v-0.378l3.479-6.576h28.644c3.08,0,5.404-1.551,6.576-3.874l13.925-25.15
		c0.775-0.773,0.775-1.171,0.775-1.949c0-2.303-1.549-3.851-3.873-3.851H76.549l-3.472-7.75H60.301z M122.224,150.304
		c-4.252,0-7.748,3.477-7.748,7.727c0,4.271,3.496,7.748,7.748,7.748c4.251,0,7.728-3.477,7.728-7.748
		C129.951,153.78,126.475,150.304,122.224,150.304L122.224,150.304z M122.224,150.304"/>
</g>
<g>
	<path fill="#FFFFFF" d="M43.33,49.427c-0.604,0.058-0.804,0.374-0.948,1.034L38.767,66.1h-3.932l-3.013-12.77h-0.086L28.81,66.1
		h-4.046l-3.96-16.557l-1.635-0.086v-2.439h7.116v2.324l-0.947,0.086c-0.631,0.058-1.004,0.316-0.861,1.004l2.497,11.077h0.115
		l2.984-12.97h3.703l3.098,13.028h0.058l2.439-11.995l-1.549-0.115v-2.439h6.457v2.324L43.33,49.427z"/>
	<path fill="#FFFFFF" d="M47.117,48.911c0-0.632-0.172-0.804-0.717-0.833l-1.004-0.058V45.64h5.107v7.719
		c0.861-1.234,2.295-2.124,4.189-2.124c2.869,0,4.563,1.606,4.563,4.994v7.489l1.635,0.085V66.1h-6.829v-2.181l0.946-0.086
		c0.547-0.057,0.833-0.229,0.833-0.946v-5.912c0-1.75-0.401-3.098-2.237-3.098c-2.01,0-3.072,1.405-3.072,2.897v6.945l1.637,0.085
		V66.1h-6.829v-2.181l0.946-0.086c0.545-0.057,0.832-0.229,0.832-0.946V48.911z"/>
	<path fill="#FFFFFF" d="M74.466,55.224c0,4.42-4.792,5.165-8.179,5.194c0.115,1.866,1.091,3.386,3.529,3.386
		c1.694,0,2.928-0.774,3.615-1.263l1.092,2.324c-0.46,0.402-2.354,1.607-5.052,1.607c-4.878,0-6.772-2.985-6.772-7.26
		c0-4.247,2.383-7.978,7.089-7.978C72.601,51.235,74.466,52.67,74.466,55.224z M69.587,53.674c-2.296,0-3.329,2.209-3.415,4.333
		c2.124-0.029,5.137-0.517,5.137-2.727C71.309,54.219,70.621,53.674,69.587,53.674z"/>
	<path fill="#FFFFFF" d="M78.254,54.937c0-0.631-0.174-0.832-0.717-0.86L76.33,53.99v-2.324h4.85v2.152
		c0.66-1.435,2.18-2.583,4.074-2.583c0.947,0,1.809,0.172,2.756,0.631v4.276l-2.67,0.2v-1.32c0-0.344-0.055-0.602-0.285-0.717
		c-0.258-0.115-0.461-0.144-0.775-0.144c-1.549,0-2.611,1.234-2.611,2.898v6.658l2.498,0.114V66.1h-7.693v-2.181l0.949-0.086
		c0.543-0.057,0.832-0.229,0.832-0.946V54.937z"/>
	<path fill="#FFFFFF" d="M101.613,55.224c0,4.42-4.793,5.165-8.18,5.194c0.115,1.866,1.09,3.386,3.529,3.386
		c1.693,0,2.928-0.774,3.615-1.263l1.09,2.324c-0.459,0.402-2.354,1.607-5.049,1.607c-4.879,0-6.773-2.985-6.773-7.26
		c0-4.247,2.383-7.978,7.09-7.978C99.746,51.235,101.613,52.67,101.613,55.224z M96.734,53.674c-2.297,0-3.33,2.209-3.416,4.333
		c2.123-0.029,5.137-0.517,5.137-2.727C98.455,54.219,97.766,53.674,96.734,53.674z"/>
	<path fill="#FFFFFF" d="M114.41,48.625v3.042h3.818l-0.287,2.411h-3.531v7.546c0,1.75,0.688,2.267,1.865,2.267
		c0.773,0,1.492-0.314,1.953-0.602l0.859,2.209c-0.859,0.603-2.295,1.004-3.645,1.004c-4.475,0-4.447-2.755-4.447-4.763v-7.662
		h-2.037l0.287-2.095c2.008-0.172,2.697-1.723,3.301-3.357H114.41z"/>
	<path fill="#FFFFFF" d="M126.436,51.235c2.123,0,6.398,0.66,6.398,7.26c0,5.51-3.07,8.035-6.859,8.035
		c-3.844,0-6.369-2.468-6.369-7.662C119.605,52.899,123.48,51.235,126.436,51.235z M129.332,58.955c0-3.214-0.773-5.194-3.07-5.194
		c-2.266,0-3.184,1.951-3.184,4.706c0,2.668,0.371,5.538,3.127,5.538C128.443,64.005,129.332,61.939,129.332,58.955z"/>
</g>
<rect x="104" y="68" fill="#FCA100" width="50" height="28"/>
<g>
	<path fill="#FFFFFF" d="M116.967,75c2.427,0,4.641,0.73,4.641,3.588c0,1.418-0.816,2.406-1.977,3.008
		c1.611,0.408,2.707,1.525,2.707,3.417c0,2.793-1.934,4.275-5.501,4.275h-6.038v-1.74l0.71-0.064
		c0.364-0.043,0.624-0.172,0.624-0.602v-9.992l-1.227-0.064V75H116.967z M114.753,80.866h1.59c1.849,0,2.601-0.859,2.601-1.999
		c0-1.547-1.053-1.891-2.449-1.891h-1.741V80.866z M114.753,87.269h2.021c2.104,0,2.793-0.967,2.793-2.278
		c0-1.439-0.988-2.213-2.686-2.213h-2.128V87.269z"/>
	<path fill="#FFFFFF" d="M134.674,89.288h-3.48v-1.396c-0.752,1.074-2.063,1.676-3.481,1.676c-2.147,0-3.331-1.182-3.331-3.717
		v-4.963c0-0.451-0.171-0.581-0.537-0.602l-0.687-0.043V78.48h3.781v6.812c0,1.311,0.216,2.299,1.591,2.299
		c1.504,0,2.299-1.01,2.299-2.127V80.93c0-0.472-0.129-0.623-0.537-0.644l-0.688-0.043V78.48h3.781v8.423
		c0,0.473,0.129,0.581,0.537,0.624l0.752,0.064V89.288z"/>
	<path fill="#FFFFFF" d="M143.895,87.247c-0.752,1.074-2.064,1.676-3.481,1.676c-2.149,0-3.329-1.182-3.329-3.717v-4.318
		c0-0.451-0.172-0.581-0.538-0.602l-0.687-0.043V78.48h3.78v6.167c0,1.311,0.216,2.299,1.591,2.299c1.504,0,2.299-1.01,2.299-2.127
		V80.93c0-0.472-0.129-0.644-0.537-0.644l-0.688-0.043V78.48h3.781v10.4c0,3.545-1.784,5.006-4.984,5.006
		c-1.354,0-3.139-0.257-4.04-0.709v-2.986l2.041-0.172v1.031c0,0.409,0.108,0.623,0.495,0.773c0.408,0.15,0.881,0.215,1.525,0.215
		c1.976,0,2.771-1.204,2.771-3.159V87.247z"/>
</g>
</svg>
